<svg width="1118" height="243" viewBox="0 0 1118 243" fill="none" xmlns="http://www.w3.org/2000/svg">
<g clip-path="url(#clip0_1639_11819)" filter="url(#filter0_d_1639_11819)">
<g opacity="0.8">
<ellipse cx="1058.3" cy="-73.7985" rx="147.148" ry="107.523" transform="rotate(180 1058.3 -73.7985)" fill="#6395F8"/>
<ellipse cx="794.548" cy="-20.8314" rx="236.548" ry="160.49" transform="rotate(180 794.548 -20.8314)" fill="#6395F8"/>
</g>
<g opacity="0.3">
<ellipse cx="1073.85" cy="21.5428" rx="147.148" ry="107.523" transform="rotate(180 1073.85 21.5428)" fill="#6395F8"/>
<ellipse cx="881.726" cy="-53.6702" rx="192.681" ry="97.989" transform="rotate(180 881.726 -53.6702)" fill="#6395F8"/>
<ellipse cx="810.096" cy="74.5099" rx="236.548" ry="160.49" transform="rotate(180 810.096 74.5099)" fill="#6395F8"/>
</g>
<line y1="-0.5" x2="58.3445" y2="-0.5" transform="matrix(0.91354 0.406749 -0.91354 0.406749 821 136.758)" stroke="#5683DA"/>
<line y1="-0.5" x2="58.3445" y2="-0.5" transform="matrix(0.91354 0.406749 -0.91354 0.406749 903 173.269)" stroke="#5683DA"/>
<line y1="-0.5" x2="98.7368" y2="-0.5" transform="matrix(0.91354 0.406749 -0.91354 0.406749 874.3 128.543)" stroke="#5683DA"/>
<line y1="-0.5" x2="58.3445" y2="-0.5" transform="matrix(0.91354 0.406749 -0.91354 0.406749 892.75 102.987)" stroke="#5683DA"/>
<line y1="-0.5" x2="58.3445" y2="-0.5" transform="matrix(0.91354 0.406749 -0.91354 0.406749 974.75 139.497)" stroke="#5683DA"/>
<line y1="-0.5" x2="98.7368" y2="-0.5" transform="matrix(0.91354 0.406749 -0.91354 0.406749 946.05 94.772)" stroke="#5683DA"/>
<line y1="-0.5" x2="58.3445" y2="-0.5" transform="matrix(0.91354 0.406749 -0.91354 0.406749 964.5 69.2148)" stroke="#5683DA"/>
<line y1="-0.5" x2="58.3445" y2="-0.5" transform="matrix(0.91354 0.406749 -0.91354 0.406749 1046.5 105.725)" stroke="#5683DA"/>
<line y1="-0.5" x2="98.7368" y2="-0.5" transform="matrix(0.91354 0.406749 -0.91354 0.406749 1017.8 61)" stroke="#5683DA"/>
</g>
<g opacity="0.4" clip-path="url(#clip1_1639_11819)">
<g opacity="0.8">
<ellipse cx="103.381" cy="30.934" rx="30.4062" ry="22.3077" transform="rotate(-180 103.381 30.934)" fill="#6395F8"/>
<ellipse cx="63.6812" cy="15.3295" rx="39.8149" ry="20.3297" transform="rotate(-180 63.6812 15.3295)" fill="#6395F8"/>
<ellipse cx="48.8794" cy="41.923" rx="48.8794" ry="33.2967" transform="rotate(-180 48.8794 41.923)" fill="#6395F8"/>
</g>
<g opacity="0.3">
<ellipse cx="106.594" cy="50.7143" rx="30.4062" ry="22.3077" transform="rotate(-180 106.594 50.7143)" fill="#6395F8"/>
<ellipse cx="66.8941" cy="35.1098" rx="39.8149" ry="20.3297" transform="rotate(-180 66.8941 35.1098)" fill="#6395F8"/>
<ellipse cx="52.0923" cy="61.7033" rx="48.8794" ry="33.2967" transform="rotate(-180 52.0923 61.7033)" fill="#6395F8"/>
</g>
</g>
<defs>
<filter id="filter0_d_1639_11819" x="554" y="-247" width="671" height="490" filterUnits="userSpaceOnUse" color-interpolation-filters="sRGB">
<feFlood flood-opacity="0" result="BackgroundImageFix"/>
<feColorMatrix in="SourceAlpha" type="matrix" values="0 0 0 0 0 0 0 0 0 0 0 0 0 0 0 0 0 0 127 0" result="hardAlpha"/>
<feOffset dy="4"/>
<feGaussianBlur stdDeviation="2"/>
<feComposite in2="hardAlpha" operator="out"/>
<feColorMatrix type="matrix" values="0 0 0 0 0 0 0 0 0 0 0 0 0 0 0 0 0 0 0.25 0"/>
<feBlend mode="normal" in2="BackgroundImageFix" result="effect1_dropShadow_1639_11819"/>
<feBlend mode="normal" in="SourceGraphic" in2="effect1_dropShadow_1639_11819" result="shape"/>
</filter>
<clipPath id="clip0_1639_11819">
<rect width="663" height="482" fill="white" transform="translate(1221 235) rotate(180)"/>
</clipPath>
<clipPath id="clip1_1639_11819">
<rect width="137" height="100" fill="white" transform="translate(137 95) rotate(-180)"/>
</clipPath>
</defs>
</svg>
