<svg width="28" height="28" viewBox="0 0 28 28" fill="none" xmlns="http://www.w3.org/2000/svg">
<path d="M21.0005 12.25V22.3125C21.0005 22.5998 20.9439 22.8842 20.834 23.1496C20.724 23.415 20.5629 23.6562 20.3598 23.8593C20.1567 24.0624 19.9155 24.2236 19.6501 24.3335C19.3847 24.4434 19.1003 24.5 18.813 24.5H5.68799C5.10783 24.5 4.55143 24.2695 4.14119 23.8593C3.73096 23.4491 3.50049 22.8927 3.50049 22.3125V9.1875C3.50049 8.60734 3.73096 8.05094 4.14119 7.6407C4.55143 7.23047 5.10783 7 5.68799 7H14.8471" stroke="#041430" stroke-width="1.5" stroke-linecap="round" stroke-linejoin="round"/>
<path d="M18.3755 3.50049H24.503V9.62798" stroke="#041430" stroke-width="1.00189" stroke-linecap="round" stroke-linejoin="round"/>
<path d="M12.249 15.7522L24.0632 3.93799" stroke="#041430" stroke-width="1.5" stroke-linecap="round" stroke-linejoin="round"/>
</svg>
