<svg width="28" height="28" viewBox="0 0 28 28" fill="none" xmlns="http://www.w3.org/2000/svg">
<path d="M14 25C13.6603 24.9996 13.3287 24.8934 13.0481 24.6954C8.89215 21.7778 7.09258 19.7773 6.09999 18.5266C3.98472 15.8606 2.97203 13.1235 3.00059 10.1595C3.0339 6.76281 5.669 4 8.8747 4C11.2057 4 12.8202 5.35789 13.7604 6.48883C13.7902 6.52429 13.827 6.55273 13.8684 6.57222C13.9097 6.59171 13.9546 6.60179 14 6.60179C14.0454 6.60179 14.0903 6.59171 14.1316 6.57222C14.173 6.55273 14.2098 6.52429 14.2396 6.48883C15.1798 5.3568 16.7943 4 19.1253 4C22.331 4 24.9661 6.76281 24.9994 10.16C25.028 13.1246 24.0142 15.8617 21.9 18.5272C20.9074 19.7779 19.1079 21.7784 14.9519 24.6959C14.6713 24.8938 14.3396 24.9997 14 25Z" fill="#32456B" stroke="#32456B" stroke-width="1.5"/>
</svg>
