<svg width="584" height="194" viewBox="0 0 584 194" fill="none" xmlns="http://www.w3.org/2000/svg">
<path d="M157.307 57.0795C157.087 56.3902 156.792 55.7727 156.42 55.2273C156.057 54.6742 155.621 54.2045 155.114 53.8182C154.606 53.4242 154.027 53.125 153.375 52.9205C152.731 52.7159 152.023 52.6136 151.25 52.6136C149.939 52.6136 148.758 52.9508 147.705 53.625C146.652 54.2992 145.818 55.2879 145.205 56.5909C144.598 57.8864 144.295 59.4735 144.295 61.3523C144.295 63.2386 144.602 64.8333 145.216 66.1364C145.83 67.4394 146.67 68.428 147.739 69.1023C148.807 69.7765 150.023 70.1136 151.386 70.1136C152.652 70.1136 153.754 69.8561 154.693 69.3409C155.64 68.8258 156.371 68.0985 156.886 67.1591C157.409 66.2121 157.67 65.0985 157.67 63.8182L158.58 63.9886H151.92V61.0909H161.068V63.7386C161.068 65.6932 160.652 67.3902 159.818 68.8295C158.992 70.2614 157.848 71.3674 156.386 72.1477C154.932 72.928 153.265 73.3182 151.386 73.3182C149.28 73.3182 147.432 72.8333 145.841 71.8636C144.258 70.8939 143.023 69.5189 142.136 67.7386C141.25 65.9508 140.807 63.8295 140.807 61.375C140.807 59.5189 141.064 57.8523 141.58 56.375C142.095 54.8977 142.818 53.6439 143.75 52.6136C144.689 51.5758 145.792 50.7841 147.057 50.2386C148.33 49.6856 149.72 49.4091 151.227 49.4091C152.485 49.4091 153.655 49.5947 154.739 49.9659C155.83 50.3371 156.799 50.8636 157.648 51.5455C158.504 52.2273 159.212 53.0379 159.773 53.9773C160.333 54.9091 160.712 55.9432 160.909 57.0795H157.307ZM172.776 73.3523C171.056 73.3523 169.575 72.9848 168.332 72.25C167.098 71.5076 166.143 70.4659 165.469 69.125C164.802 67.7765 164.469 66.197 164.469 64.3864C164.469 62.5985 164.802 61.0227 165.469 59.6591C166.143 58.2955 167.082 57.2311 168.287 56.4659C169.499 55.7008 170.916 55.3182 172.537 55.3182C173.522 55.3182 174.476 55.4811 175.401 55.8068C176.325 56.1326 177.154 56.6439 177.889 57.3409C178.624 58.0379 179.204 58.9432 179.628 60.0568C180.052 61.1629 180.264 62.5076 180.264 64.0909V65.2955H166.389V62.75H176.935C176.935 61.8561 176.753 61.0644 176.389 60.375C176.026 59.678 175.514 59.1288 174.855 58.7273C174.204 58.3258 173.438 58.125 172.56 58.125C171.605 58.125 170.772 58.3598 170.06 58.8295C169.355 59.2917 168.81 59.8977 168.423 60.6477C168.045 61.3902 167.855 62.197 167.855 63.0682V65.0568C167.855 66.2235 168.06 67.2159 168.469 68.0341C168.885 68.8523 169.465 69.4773 170.207 69.9091C170.95 70.3333 171.817 70.5455 172.81 70.5455C173.454 70.5455 174.041 70.4545 174.571 70.2727C175.101 70.0833 175.56 69.803 175.946 69.4318C176.332 69.0606 176.628 68.6023 176.832 68.0568L180.048 68.6364C179.791 69.5833 179.329 70.4129 178.662 71.125C178.003 71.8295 177.173 72.3788 176.173 72.7727C175.181 73.1591 174.048 73.3523 172.776 73.3523ZM192.182 55.5455V58.2727H182.648V55.5455H192.182ZM185.205 51.3636H188.602V67.875C188.602 68.5341 188.701 69.0303 188.898 69.3636C189.095 69.6894 189.348 69.9129 189.659 70.0341C189.977 70.1477 190.322 70.2045 190.693 70.2045C190.966 70.2045 191.205 70.1856 191.409 70.1477C191.614 70.1098 191.773 70.0795 191.886 70.0568L192.5 72.8636C192.303 72.9394 192.023 73.0152 191.659 73.0909C191.295 73.1742 190.841 73.2197 190.295 73.2273C189.402 73.2424 188.568 73.0833 187.795 72.75C187.023 72.4167 186.398 71.9015 185.92 71.2045C185.443 70.5076 185.205 69.6326 185.205 68.5795V51.3636ZM212.557 55.5455V58.2727H203.023V55.5455H212.557ZM205.58 51.3636H208.977V67.875C208.977 68.5341 209.076 69.0303 209.273 69.3636C209.47 69.6894 209.723 69.9129 210.034 70.0341C210.352 70.1477 210.697 70.2045 211.068 70.2045C211.341 70.2045 211.58 70.1856 211.784 70.1477C211.989 70.1098 212.148 70.0795 212.261 70.0568L212.875 72.8636C212.678 72.9394 212.398 73.0152 212.034 73.0909C211.67 73.1742 211.216 73.2197 210.67 73.2273C209.777 73.2424 208.943 73.0833 208.17 72.75C207.398 72.4167 206.773 71.9015 206.295 71.2045C205.818 70.5076 205.58 69.6326 205.58 68.5795V51.3636ZM220.088 62.6364V73H216.69V49.7273H220.043V58.3864H220.259C220.668 57.447 221.293 56.7008 222.134 56.1477C222.974 55.5947 224.073 55.3182 225.429 55.3182C226.626 55.3182 227.671 55.5644 228.565 56.0568C229.467 56.5492 230.164 57.2841 230.656 58.2614C231.156 59.2311 231.406 60.4432 231.406 61.8977V73H228.009V62.3068C228.009 61.0265 227.679 60.0341 227.02 59.3295C226.361 58.6174 225.444 58.2614 224.27 58.2614C223.467 58.2614 222.747 58.4318 222.111 58.7727C221.482 59.1136 220.986 59.6136 220.622 60.2727C220.266 60.9242 220.088 61.7121 220.088 62.6364ZM243.463 73.3523C241.743 73.3523 240.262 72.9848 239.02 72.25C237.785 71.5076 236.83 70.4659 236.156 69.125C235.49 67.7765 235.156 66.197 235.156 64.3864C235.156 62.5985 235.49 61.0227 236.156 59.6591C236.83 58.2955 237.77 57.2311 238.974 56.4659C240.187 55.7008 241.603 55.3182 243.224 55.3182C244.209 55.3182 245.164 55.4811 246.088 55.8068C247.012 56.1326 247.842 56.6439 248.577 57.3409C249.312 58.0379 249.891 58.9432 250.315 60.0568C250.74 61.1629 250.952 62.5076 250.952 64.0909V65.2955H237.077V62.75H247.622C247.622 61.8561 247.44 61.0644 247.077 60.375C246.713 59.678 246.202 59.1288 245.543 58.7273C244.891 58.3258 244.126 58.125 243.247 58.125C242.293 58.125 241.459 58.3598 240.747 58.8295C240.043 59.2917 239.497 59.8977 239.111 60.6477C238.732 61.3902 238.543 62.197 238.543 63.0682V65.0568C238.543 66.2235 238.747 67.2159 239.156 68.0341C239.573 68.8523 240.152 69.4773 240.895 69.9091C241.637 70.3333 242.505 70.5455 243.497 70.5455C244.141 70.5455 244.728 70.4545 245.259 70.2727C245.789 70.0833 246.247 69.803 246.634 69.4318C247.02 69.0606 247.315 68.6023 247.52 68.0568L250.736 68.6364C250.478 69.5833 250.016 70.4129 249.349 71.125C248.69 71.8295 247.861 72.3788 246.861 72.7727C245.868 73.1591 244.736 73.3523 243.463 73.3523ZM271.497 55.5455V58.2727H261.634V55.5455H271.497ZM264.338 73V53.5227C264.338 52.4318 264.577 51.5265 265.054 50.8068C265.531 50.0795 266.164 49.5379 266.952 49.1818C267.74 48.8182 268.596 48.6364 269.52 48.6364C270.202 48.6364 270.785 48.6932 271.27 48.8068C271.755 48.9129 272.115 49.0114 272.349 49.1023L271.554 51.8523C271.395 51.8068 271.19 51.7538 270.94 51.6932C270.69 51.625 270.387 51.5909 270.031 51.5909C269.205 51.5909 268.615 51.7955 268.259 52.2045C267.91 52.6136 267.736 53.2045 267.736 53.9773V73H264.338ZM281.668 73.3523C280.031 73.3523 278.603 72.9773 277.384 72.2273C276.164 71.4773 275.217 70.428 274.543 69.0795C273.868 67.7311 273.531 66.1553 273.531 64.3523C273.531 62.5417 273.868 60.9583 274.543 59.6023C275.217 58.2462 276.164 57.1932 277.384 56.4432C278.603 55.6932 280.031 55.3182 281.668 55.3182C283.304 55.3182 284.732 55.6932 285.952 56.4432C287.171 57.1932 288.118 58.2462 288.793 59.6023C289.467 60.9583 289.804 62.5417 289.804 64.3523C289.804 66.1553 289.467 67.7311 288.793 69.0795C288.118 70.428 287.171 71.4773 285.952 72.2273C284.732 72.9773 283.304 73.3523 281.668 73.3523ZM281.679 70.5C282.74 70.5 283.618 70.2197 284.315 69.6591C285.012 69.0985 285.527 68.3523 285.861 67.4205C286.202 66.4886 286.372 65.4621 286.372 64.3409C286.372 63.2273 286.202 62.2045 285.861 61.2727C285.527 60.3333 285.012 59.5795 284.315 59.0114C283.618 58.4432 282.74 58.1591 281.679 58.1591C280.611 58.1591 279.724 58.4432 279.02 59.0114C278.323 59.5795 277.804 60.3333 277.463 61.2727C277.13 62.2045 276.963 63.2273 276.963 64.3409C276.963 65.4621 277.13 66.4886 277.463 67.4205C277.804 68.3523 278.323 69.0985 279.02 69.6591C279.724 70.2197 280.611 70.5 281.679 70.5ZM293.597 73V55.5455H296.881V58.3182H297.062C297.381 57.3788 297.941 56.6402 298.744 56.1023C299.555 55.5568 300.472 55.2841 301.494 55.2841C301.706 55.2841 301.956 55.2917 302.244 55.3068C302.54 55.322 302.771 55.3409 302.938 55.3636V58.6136C302.801 58.5758 302.559 58.5341 302.21 58.4886C301.862 58.4356 301.513 58.4091 301.165 58.4091C300.362 58.4091 299.646 58.5795 299.017 58.9205C298.396 59.2538 297.903 59.7197 297.54 60.3182C297.176 60.9091 296.994 61.5833 296.994 62.3409V73H293.597ZM312.776 73.3523C311.056 73.3523 309.575 72.9848 308.332 72.25C307.098 71.5076 306.143 70.4659 305.469 69.125C304.802 67.7765 304.469 66.197 304.469 64.3864C304.469 62.5985 304.802 61.0227 305.469 59.6591C306.143 58.2955 307.082 57.2311 308.287 56.4659C309.499 55.7008 310.916 55.3182 312.537 55.3182C313.522 55.3182 314.476 55.4811 315.401 55.8068C316.325 56.1326 317.154 56.6439 317.889 57.3409C318.624 58.0379 319.204 58.9432 319.628 60.0568C320.052 61.1629 320.264 62.5076 320.264 64.0909V65.2955H306.389V62.75H316.935C316.935 61.8561 316.753 61.0644 316.389 60.375C316.026 59.678 315.514 59.1288 314.855 58.7273C314.204 58.3258 313.438 58.125 312.56 58.125C311.605 58.125 310.772 58.3598 310.06 58.8295C309.355 59.2917 308.81 59.8977 308.423 60.6477C308.045 61.3902 307.855 62.197 307.855 63.0682V65.0568C307.855 66.2235 308.06 67.2159 308.469 68.0341C308.885 68.8523 309.465 69.4773 310.207 69.9091C310.95 70.3333 311.817 70.5455 312.81 70.5455C313.454 70.5455 314.041 70.4545 314.571 70.2727C315.101 70.0833 315.56 69.803 315.946 69.4318C316.332 69.0606 316.628 68.6023 316.832 68.0568L320.048 68.6364C319.791 69.5833 319.329 70.4129 318.662 71.125C318.003 71.8295 317.173 72.3788 316.173 72.7727C315.181 73.1591 314.048 73.3523 312.776 73.3523ZM331.386 73.3523C329.697 73.3523 328.242 72.9697 327.023 72.2045C325.811 71.4318 324.879 70.3674 324.227 69.0114C323.576 67.6553 323.25 66.1023 323.25 64.3523C323.25 62.5795 323.583 61.0152 324.25 59.6591C324.917 58.2955 325.856 57.2311 327.068 56.4659C328.28 55.7008 329.708 55.3182 331.352 55.3182C332.678 55.3182 333.86 55.5644 334.898 56.0568C335.936 56.5417 336.773 57.2235 337.409 58.1023C338.053 58.9811 338.436 60.0076 338.557 61.1818H335.25C335.068 60.3636 334.652 59.6591 334 59.0682C333.356 58.4773 332.492 58.1818 331.409 58.1818C330.462 58.1818 329.633 58.4318 328.92 58.9318C328.216 59.4242 327.667 60.1288 327.273 61.0455C326.879 61.9545 326.682 63.0303 326.682 64.2727C326.682 65.5455 326.875 66.6439 327.261 67.5682C327.648 68.4924 328.193 69.2083 328.898 69.7159C329.61 70.2235 330.447 70.4773 331.409 70.4773C332.053 70.4773 332.636 70.3598 333.159 70.125C333.689 69.8826 334.133 69.5379 334.489 69.0909C334.852 68.6439 335.106 68.1061 335.25 67.4773H338.557C338.436 68.6061 338.068 69.6136 337.455 70.5C336.841 71.3864 336.019 72.0833 334.989 72.5909C333.966 73.0985 332.765 73.3523 331.386 73.3523ZM347.27 73.3864C346.164 73.3864 345.164 73.1818 344.27 72.7727C343.376 72.3561 342.668 71.7538 342.145 70.9659C341.63 70.178 341.372 69.2121 341.372 68.0682C341.372 67.0833 341.562 66.2727 341.94 65.6364C342.319 65 342.83 64.4962 343.474 64.125C344.118 63.7538 344.838 63.4735 345.634 63.2841C346.429 63.0947 347.24 62.9508 348.065 62.8523C349.111 62.7311 349.959 62.6326 350.611 62.5568C351.262 62.4735 351.736 62.3409 352.031 62.1591C352.327 61.9773 352.474 61.6818 352.474 61.2727V61.1932C352.474 60.2008 352.194 59.4318 351.634 58.8864C351.08 58.3409 350.255 58.0682 349.156 58.0682C348.012 58.0682 347.111 58.322 346.452 58.8295C345.8 59.3295 345.349 59.8864 345.099 60.5L341.906 59.7727C342.285 58.7121 342.838 57.8561 343.565 57.2045C344.3 56.5455 345.145 56.0682 346.099 55.7727C347.054 55.4697 348.058 55.3182 349.111 55.3182C349.808 55.3182 350.546 55.4015 351.327 55.5682C352.115 55.7273 352.849 56.0227 353.531 56.4545C354.221 56.8864 354.785 57.5038 355.224 58.3068C355.664 59.1023 355.884 60.1364 355.884 61.4091V73H352.565V70.6136H352.429C352.209 71.053 351.88 71.4848 351.44 71.9091C351.001 72.3333 350.437 72.6856 349.747 72.9659C349.058 73.2462 348.232 73.3864 347.27 73.3864ZM348.009 70.6591C348.948 70.6591 349.751 70.4735 350.418 70.1023C351.092 69.7311 351.603 69.2462 351.952 68.6477C352.308 68.0417 352.486 67.3939 352.486 66.7045V64.4545C352.365 64.5758 352.13 64.6894 351.781 64.7955C351.44 64.8939 351.05 64.9811 350.611 65.0568C350.171 65.125 349.743 65.1894 349.327 65.25C348.91 65.303 348.562 65.3485 348.281 65.3864C347.622 65.4697 347.02 65.6098 346.474 65.8068C345.937 66.0038 345.505 66.2879 345.179 66.6591C344.861 67.0227 344.702 67.5076 344.702 68.1136C344.702 68.9545 345.012 69.5909 345.634 70.0227C346.255 70.447 347.046 70.6591 348.009 70.6591ZM373.489 59.8068L370.409 60.3523C370.28 59.9583 370.076 59.5833 369.795 59.2273C369.523 58.8712 369.152 58.5795 368.682 58.3523C368.212 58.125 367.625 58.0114 366.92 58.0114C365.958 58.0114 365.155 58.2273 364.511 58.6591C363.867 59.0833 363.545 59.6326 363.545 60.3068C363.545 60.8902 363.761 61.3598 364.193 61.7159C364.625 62.072 365.322 62.3636 366.284 62.5909L369.057 63.2273C370.663 63.5985 371.86 64.1705 372.648 64.9432C373.436 65.7159 373.83 66.7197 373.83 67.9545C373.83 69 373.527 69.9318 372.92 70.75C372.322 71.5606 371.485 72.197 370.409 72.6591C369.341 73.1212 368.102 73.3523 366.693 73.3523C364.739 73.3523 363.144 72.9356 361.909 72.1023C360.674 71.2614 359.917 70.0682 359.636 68.5227L362.92 68.0227C363.125 68.8788 363.545 69.5265 364.182 69.9659C364.818 70.3977 365.648 70.6136 366.67 70.6136C367.784 70.6136 368.674 70.3826 369.341 69.9205C370.008 69.4508 370.341 68.8788 370.341 68.2045C370.341 67.6591 370.136 67.2008 369.727 66.8295C369.326 66.4583 368.708 66.178 367.875 65.9886L364.92 65.3409C363.292 64.9697 362.087 64.3788 361.307 63.5682C360.534 62.7576 360.148 61.7311 360.148 60.4886C360.148 59.4583 360.436 58.5568 361.011 57.7841C361.587 57.0114 362.383 56.4091 363.398 55.9773C364.413 55.5379 365.576 55.3182 366.886 55.3182C368.773 55.3182 370.258 55.7273 371.341 56.5455C372.424 57.3561 373.14 58.4432 373.489 59.8068ZM385.713 55.5455V58.2727H376.179V55.5455H385.713ZM378.736 51.3636H382.134V67.875C382.134 68.5341 382.232 69.0303 382.429 69.3636C382.626 69.6894 382.88 69.9129 383.19 70.0341C383.509 70.1477 383.853 70.2045 384.224 70.2045C384.497 70.2045 384.736 70.1856 384.94 70.1477C385.145 70.1098 385.304 70.0795 385.418 70.0568L386.031 72.8636C385.834 72.9394 385.554 73.0152 385.19 73.0909C384.827 73.1742 384.372 73.2197 383.827 73.2273C382.933 73.2424 382.099 73.0833 381.327 72.75C380.554 72.4167 379.929 71.9015 379.452 71.2045C378.974 70.5076 378.736 69.6326 378.736 68.5795V51.3636ZM406.247 55.5455V58.2727H396.384V55.5455H406.247ZM399.088 73V53.5227C399.088 52.4318 399.327 51.5265 399.804 50.8068C400.281 50.0795 400.914 49.5379 401.702 49.1818C402.49 48.8182 403.346 48.6364 404.27 48.6364C404.952 48.6364 405.535 48.6932 406.02 48.8068C406.505 48.9129 406.865 49.0114 407.099 49.1023L406.304 51.8523C406.145 51.8068 405.94 51.7538 405.69 51.6932C405.44 51.625 405.137 51.5909 404.781 51.5909C403.955 51.5909 403.365 51.7955 403.009 52.2045C402.66 52.6136 402.486 53.2045 402.486 53.9773V73H399.088ZM416.418 73.3523C414.781 73.3523 413.353 72.9773 412.134 72.2273C410.914 71.4773 409.967 70.428 409.293 69.0795C408.618 67.7311 408.281 66.1553 408.281 64.3523C408.281 62.5417 408.618 60.9583 409.293 59.6023C409.967 58.2462 410.914 57.1932 412.134 56.4432C413.353 55.6932 414.781 55.3182 416.418 55.3182C418.054 55.3182 419.482 55.6932 420.702 56.4432C421.921 57.1932 422.868 58.2462 423.543 59.6023C424.217 60.9583 424.554 62.5417 424.554 64.3523C424.554 66.1553 424.217 67.7311 423.543 69.0795C422.868 70.428 421.921 71.4773 420.702 72.2273C419.482 72.9773 418.054 73.3523 416.418 73.3523ZM416.429 70.5C417.49 70.5 418.368 70.2197 419.065 69.6591C419.762 69.0985 420.277 68.3523 420.611 67.4205C420.952 66.4886 421.122 65.4621 421.122 64.3409C421.122 63.2273 420.952 62.2045 420.611 61.2727C420.277 60.3333 419.762 59.5795 419.065 59.0114C418.368 58.4432 417.49 58.1591 416.429 58.1591C415.361 58.1591 414.474 58.4432 413.77 59.0114C413.073 59.5795 412.554 60.3333 412.213 61.2727C411.88 62.2045 411.713 63.2273 411.713 64.3409C411.713 65.4621 411.88 66.4886 412.213 67.4205C412.554 68.3523 413.073 69.0985 413.77 69.6591C414.474 70.2197 415.361 70.5 416.429 70.5ZM428.347 73V55.5455H431.631V58.3182H431.812C432.131 57.3788 432.691 56.6402 433.494 56.1023C434.305 55.5568 435.222 55.2841 436.244 55.2841C436.456 55.2841 436.706 55.2917 436.994 55.3068C437.29 55.322 437.521 55.3409 437.688 55.3636V58.6136C437.551 58.5758 437.309 58.5341 436.96 58.4886C436.612 58.4356 436.263 58.4091 435.915 58.4091C435.112 58.4091 434.396 58.5795 433.767 58.9205C433.146 59.2538 432.653 59.7197 432.29 60.3182C431.926 60.9091 431.744 61.5833 431.744 62.3409V73H428.347ZM149.432 94.5455V97.2727H139.898V94.5455H149.432ZM142.455 90.3636H145.852V106.875C145.852 107.534 145.951 108.03 146.148 108.364C146.345 108.689 146.598 108.913 146.909 109.034C147.227 109.148 147.572 109.205 147.943 109.205C148.216 109.205 148.455 109.186 148.659 109.148C148.864 109.11 149.023 109.08 149.136 109.057L149.75 111.864C149.553 111.939 149.273 112.015 148.909 112.091C148.545 112.174 148.091 112.22 147.545 112.227C146.652 112.242 145.818 112.083 145.045 111.75C144.273 111.417 143.648 110.902 143.17 110.205C142.693 109.508 142.455 108.633 142.455 107.58V90.3636ZM156.963 101.636V112H153.565V88.7273H156.918V97.3864H157.134C157.543 96.447 158.168 95.7008 159.009 95.1477C159.849 94.5947 160.948 94.3182 162.304 94.3182C163.501 94.3182 164.546 94.5644 165.44 95.0568C166.342 95.5492 167.039 96.2841 167.531 97.2614C168.031 98.2311 168.281 99.4432 168.281 100.898V112H164.884V101.307C164.884 100.027 164.554 99.0341 163.895 98.3295C163.236 97.6174 162.319 97.2614 161.145 97.2614C160.342 97.2614 159.622 97.4318 158.986 97.7727C158.357 98.1136 157.861 98.6136 157.497 99.2727C157.141 99.9242 156.963 100.712 156.963 101.636ZM180.338 112.352C178.618 112.352 177.137 111.985 175.895 111.25C174.66 110.508 173.705 109.466 173.031 108.125C172.365 106.777 172.031 105.197 172.031 103.386C172.031 101.598 172.365 100.023 173.031 98.6591C173.705 97.2955 174.645 96.2311 175.849 95.4659C177.062 94.7008 178.478 94.3182 180.099 94.3182C181.084 94.3182 182.039 94.4811 182.963 94.8068C183.887 95.1326 184.717 95.6439 185.452 96.3409C186.187 97.0379 186.766 97.9432 187.19 99.0568C187.615 100.163 187.827 101.508 187.827 103.091V104.295H173.952V101.75H184.497C184.497 100.856 184.315 100.064 183.952 99.375C183.588 98.678 183.077 98.1288 182.418 97.7273C181.766 97.3258 181.001 97.125 180.122 97.125C179.168 97.125 178.334 97.3598 177.622 97.8295C176.918 98.2917 176.372 98.8977 175.986 99.6477C175.607 100.39 175.418 101.197 175.418 102.068V104.057C175.418 105.223 175.622 106.216 176.031 107.034C176.448 107.852 177.027 108.477 177.77 108.909C178.512 109.333 179.38 109.545 180.372 109.545C181.016 109.545 181.603 109.455 182.134 109.273C182.664 109.083 183.122 108.803 183.509 108.432C183.895 108.061 184.19 107.602 184.395 107.057L187.611 107.636C187.353 108.583 186.891 109.413 186.224 110.125C185.565 110.83 184.736 111.379 183.736 111.773C182.743 112.159 181.611 112.352 180.338 112.352ZM203.463 101.636V112H200.065V94.5455H203.327V97.3864H203.543C203.944 96.4621 204.573 95.7197 205.429 95.1591C206.293 94.5985 207.38 94.3182 208.69 94.3182C209.88 94.3182 210.921 94.5682 211.815 95.0682C212.709 95.5606 213.402 96.2955 213.895 97.2727C214.387 98.25 214.634 99.4583 214.634 100.898V112H211.236V101.307C211.236 100.042 210.906 99.053 210.247 98.3409C209.588 97.6212 208.683 97.2614 207.531 97.2614C206.743 97.2614 206.043 97.4318 205.429 97.7727C204.823 98.1136 204.342 98.6136 203.986 99.2727C203.637 99.9242 203.463 100.712 203.463 101.636ZM226.713 112.352C224.993 112.352 223.512 111.985 222.27 111.25C221.035 110.508 220.08 109.466 219.406 108.125C218.74 106.777 218.406 105.197 218.406 103.386C218.406 101.598 218.74 100.023 219.406 98.6591C220.08 97.2955 221.02 96.2311 222.224 95.4659C223.437 94.7008 224.853 94.3182 226.474 94.3182C227.459 94.3182 228.414 94.4811 229.338 94.8068C230.262 95.1326 231.092 95.6439 231.827 96.3409C232.562 97.0379 233.141 97.9432 233.565 99.0568C233.99 100.163 234.202 101.508 234.202 103.091V104.295H220.327V101.75H230.872C230.872 100.856 230.69 100.064 230.327 99.375C229.963 98.678 229.452 98.1288 228.793 97.7273C228.141 97.3258 227.376 97.125 226.497 97.125C225.543 97.125 224.709 97.3598 223.997 97.8295C223.293 98.2917 222.747 98.8977 222.361 99.6477C221.982 100.39 221.793 101.197 221.793 102.068V104.057C221.793 105.223 221.997 106.216 222.406 107.034C222.823 107.852 223.402 108.477 224.145 108.909C224.887 109.333 225.755 109.545 226.747 109.545C227.391 109.545 227.978 109.455 228.509 109.273C229.039 109.083 229.497 108.803 229.884 108.432C230.27 108.061 230.565 107.602 230.77 107.057L233.986 107.636C233.728 108.583 233.266 109.413 232.599 110.125C231.94 110.83 231.111 111.379 230.111 111.773C229.118 112.159 227.986 112.352 226.713 112.352ZM243.051 112.386C241.945 112.386 240.945 112.182 240.051 111.773C239.157 111.356 238.449 110.754 237.926 109.966C237.411 109.178 237.153 108.212 237.153 107.068C237.153 106.083 237.343 105.273 237.722 104.636C238.1 104 238.612 103.496 239.256 103.125C239.9 102.754 240.619 102.473 241.415 102.284C242.21 102.095 243.021 101.951 243.847 101.852C244.892 101.731 245.741 101.633 246.392 101.557C247.044 101.473 247.517 101.341 247.812 101.159C248.108 100.977 248.256 100.682 248.256 100.273V100.193C248.256 99.2008 247.975 98.4318 247.415 97.8864C246.862 97.3409 246.036 97.0682 244.938 97.0682C243.794 97.0682 242.892 97.322 242.233 97.8295C241.581 98.3295 241.131 98.8864 240.881 99.5L237.688 98.7727C238.066 97.7121 238.619 96.8561 239.347 96.2045C240.081 95.5455 240.926 95.0682 241.881 94.7727C242.835 94.4697 243.839 94.3182 244.892 94.3182C245.589 94.3182 246.328 94.4015 247.108 94.5682C247.896 94.7273 248.631 95.0227 249.312 95.4545C250.002 95.8864 250.566 96.5038 251.006 97.3068C251.445 98.1023 251.665 99.1364 251.665 100.409V112H248.347V109.614H248.21C247.991 110.053 247.661 110.485 247.222 110.909C246.782 111.333 246.218 111.686 245.528 111.966C244.839 112.246 244.013 112.386 243.051 112.386ZM243.79 109.659C244.729 109.659 245.532 109.473 246.199 109.102C246.873 108.731 247.384 108.246 247.733 107.648C248.089 107.042 248.267 106.394 248.267 105.705V103.455C248.146 103.576 247.911 103.689 247.562 103.795C247.222 103.894 246.831 103.981 246.392 104.057C245.953 104.125 245.525 104.189 245.108 104.25C244.691 104.303 244.343 104.348 244.062 104.386C243.403 104.47 242.801 104.61 242.256 104.807C241.718 105.004 241.286 105.288 240.96 105.659C240.642 106.023 240.483 106.508 240.483 107.114C240.483 107.955 240.794 108.591 241.415 109.023C242.036 109.447 242.828 109.659 243.79 109.659ZM256.19 112V94.5455H259.474V97.3182H259.656C259.974 96.3788 260.535 95.6402 261.338 95.1023C262.149 94.5568 263.065 94.2841 264.088 94.2841C264.3 94.2841 264.55 94.2917 264.838 94.3068C265.134 94.322 265.365 94.3409 265.531 94.3636V97.6136C265.395 97.5758 265.152 97.5341 264.804 97.4886C264.455 97.4356 264.107 97.4091 263.759 97.4091C262.955 97.4091 262.24 97.5795 261.611 97.9205C260.99 98.2538 260.497 98.7197 260.134 99.3182C259.77 99.9091 259.588 100.583 259.588 101.341V112H256.19ZM285.247 94.5455V97.2727H275.384V94.5455H285.247ZM278.088 112V92.5227C278.088 91.4318 278.327 90.5265 278.804 89.8068C279.281 89.0795 279.914 88.5379 280.702 88.1818C281.49 87.8182 282.346 87.6364 283.27 87.6364C283.952 87.6364 284.535 87.6932 285.02 87.8068C285.505 87.9129 285.865 88.0114 286.099 88.1023L285.304 90.8523C285.145 90.8068 284.94 90.7538 284.69 90.6932C284.44 90.625 284.137 90.5909 283.781 90.5909C282.955 90.5909 282.365 90.7955 282.009 91.2045C281.66 91.6136 281.486 92.2045 281.486 92.9773V112H278.088ZM299.81 104.761V94.5455H303.219V112H299.878V108.977H299.696C299.295 109.909 298.651 110.686 297.764 111.307C296.885 111.92 295.791 112.227 294.48 112.227C293.359 112.227 292.366 111.981 291.503 111.489C290.647 110.989 289.973 110.25 289.48 109.273C288.995 108.295 288.753 107.087 288.753 105.648V94.5455H292.151V105.239C292.151 106.428 292.48 107.375 293.139 108.08C293.798 108.784 294.654 109.136 295.707 109.136C296.344 109.136 296.976 108.977 297.605 108.659C298.241 108.341 298.768 107.86 299.185 107.216C299.609 106.572 299.817 105.754 299.81 104.761ZM315.932 94.5455V97.2727H306.398V94.5455H315.932ZM308.955 90.3636H312.352V106.875C312.352 107.534 312.451 108.03 312.648 108.364C312.845 108.689 313.098 108.913 313.409 109.034C313.727 109.148 314.072 109.205 314.443 109.205C314.716 109.205 314.955 109.186 315.159 109.148C315.364 109.11 315.523 109.08 315.636 109.057L316.25 111.864C316.053 111.939 315.773 112.015 315.409 112.091C315.045 112.174 314.591 112.22 314.045 112.227C313.152 112.242 312.318 112.083 311.545 111.75C310.773 111.417 310.148 110.902 309.67 110.205C309.193 109.508 308.955 108.633 308.955 107.58V90.3636ZM330.747 104.761V94.5455H334.156V112H330.815V108.977H330.634C330.232 109.909 329.588 110.686 328.702 111.307C327.823 111.92 326.728 112.227 325.418 112.227C324.296 112.227 323.304 111.981 322.44 111.489C321.584 110.989 320.91 110.25 320.418 109.273C319.933 108.295 319.69 107.087 319.69 105.648V94.5455H323.088V105.239C323.088 106.428 323.418 107.375 324.077 108.08C324.736 108.784 325.592 109.136 326.645 109.136C327.281 109.136 327.914 108.977 328.543 108.659C329.179 108.341 329.705 107.86 330.122 107.216C330.546 106.572 330.755 105.754 330.747 104.761ZM338.722 112V94.5455H342.006V97.3182H342.188C342.506 96.3788 343.066 95.6402 343.869 95.1023C344.68 94.5568 345.597 94.2841 346.619 94.2841C346.831 94.2841 347.081 94.2917 347.369 94.3068C347.665 94.322 347.896 94.3409 348.062 94.3636V97.6136C347.926 97.5758 347.684 97.5341 347.335 97.4886C346.987 97.4356 346.638 97.4091 346.29 97.4091C345.487 97.4091 344.771 97.5795 344.142 97.9205C343.521 98.2538 343.028 98.7197 342.665 99.3182C342.301 99.9091 342.119 100.583 342.119 101.341V112H338.722ZM357.901 112.352C356.181 112.352 354.7 111.985 353.457 111.25C352.223 110.508 351.268 109.466 350.594 108.125C349.927 106.777 349.594 105.197 349.594 103.386C349.594 101.598 349.927 100.023 350.594 98.6591C351.268 97.2955 352.207 96.2311 353.412 95.4659C354.624 94.7008 356.041 94.3182 357.662 94.3182C358.647 94.3182 359.601 94.4811 360.526 94.8068C361.45 95.1326 362.279 95.6439 363.014 96.3409C363.749 97.0379 364.329 97.9432 364.753 99.0568C365.177 100.163 365.389 101.508 365.389 103.091V104.295H351.514V101.75H362.06C362.06 100.856 361.878 100.064 361.514 99.375C361.151 98.678 360.639 98.1288 359.98 97.7273C359.329 97.3258 358.563 97.125 357.685 97.125C356.73 97.125 355.897 97.3598 355.185 97.8295C354.48 98.2917 353.935 98.8977 353.548 99.6477C353.17 100.39 352.98 101.197 352.98 102.068V104.057C352.98 105.223 353.185 106.216 353.594 107.034C354.01 107.852 354.59 108.477 355.332 108.909C356.075 109.333 356.942 109.545 357.935 109.545C358.579 109.545 359.166 109.455 359.696 109.273C360.226 109.083 360.685 108.803 361.071 108.432C361.457 108.061 361.753 107.602 361.957 107.057L365.173 107.636C364.916 108.583 364.454 109.413 363.787 110.125C363.128 110.83 362.298 111.379 361.298 111.773C360.306 112.159 359.173 112.352 357.901 112.352ZM381.026 101.636V112H377.628V88.7273H380.98V97.3864H381.196C381.605 96.447 382.23 95.7008 383.071 95.1477C383.912 94.5947 385.01 94.3182 386.366 94.3182C387.563 94.3182 388.609 94.5644 389.503 95.0568C390.404 95.5492 391.101 96.2841 391.594 97.2614C392.094 98.2311 392.344 99.4432 392.344 100.898V112H388.946V101.307C388.946 100.027 388.616 99.0341 387.957 98.3295C387.298 97.6174 386.382 97.2614 385.207 97.2614C384.404 97.2614 383.685 97.4318 383.048 97.7727C382.42 98.1136 381.923 98.6136 381.56 99.2727C381.204 99.9242 381.026 100.712 381.026 101.636ZM404.401 112.352C402.681 112.352 401.2 111.985 399.957 111.25C398.723 110.508 397.768 109.466 397.094 108.125C396.427 106.777 396.094 105.197 396.094 103.386C396.094 101.598 396.427 100.023 397.094 98.6591C397.768 97.2955 398.707 96.2311 399.912 95.4659C401.124 94.7008 402.541 94.3182 404.162 94.3182C405.147 94.3182 406.101 94.4811 407.026 94.8068C407.95 95.1326 408.779 95.6439 409.514 96.3409C410.249 97.0379 410.829 97.9432 411.253 99.0568C411.677 100.163 411.889 101.508 411.889 103.091V104.295H398.014V101.75H408.56C408.56 100.856 408.378 100.064 408.014 99.375C407.651 98.678 407.139 98.1288 406.48 97.7273C405.829 97.3258 405.063 97.125 404.185 97.125C403.23 97.125 402.397 97.3598 401.685 97.8295C400.98 98.2917 400.435 98.8977 400.048 99.6477C399.67 100.39 399.48 101.197 399.48 102.068V104.057C399.48 105.223 399.685 106.216 400.094 107.034C400.51 107.852 401.09 108.477 401.832 108.909C402.575 109.333 403.442 109.545 404.435 109.545C405.079 109.545 405.666 109.455 406.196 109.273C406.726 109.083 407.185 108.803 407.571 108.432C407.957 108.061 408.253 107.602 408.457 107.057L411.673 107.636C411.416 108.583 410.954 109.413 410.287 110.125C409.628 110.83 408.798 111.379 407.798 111.773C406.806 112.159 405.673 112.352 404.401 112.352ZM415.659 112V94.5455H418.943V97.3182H419.125C419.443 96.3788 420.004 95.6402 420.807 95.1023C421.617 94.5568 422.534 94.2841 423.557 94.2841C423.769 94.2841 424.019 94.2917 424.307 94.3068C424.602 94.322 424.833 94.3409 425 94.3636V97.6136C424.864 97.5758 424.621 97.5341 424.273 97.4886C423.924 97.4356 423.576 97.4091 423.227 97.4091C422.424 97.4091 421.708 97.5795 421.08 97.9205C420.458 98.2538 419.966 98.7197 419.602 99.3182C419.239 99.9091 419.057 100.583 419.057 101.341V112H415.659ZM434.838 112.352C433.118 112.352 431.637 111.985 430.395 111.25C429.16 110.508 428.205 109.466 427.531 108.125C426.865 106.777 426.531 105.197 426.531 103.386C426.531 101.598 426.865 100.023 427.531 98.6591C428.205 97.2955 429.145 96.2311 430.349 95.4659C431.562 94.7008 432.978 94.3182 434.599 94.3182C435.584 94.3182 436.539 94.4811 437.463 94.8068C438.387 95.1326 439.217 95.6439 439.952 96.3409C440.687 97.0379 441.266 97.9432 441.69 99.0568C442.115 100.163 442.327 101.508 442.327 103.091V104.295H428.452V101.75H438.997C438.997 100.856 438.815 100.064 438.452 99.375C438.088 98.678 437.577 98.1288 436.918 97.7273C436.266 97.3258 435.501 97.125 434.622 97.125C433.668 97.125 432.834 97.3598 432.122 97.8295C431.418 98.2917 430.872 98.8977 430.486 99.6477C430.107 100.39 429.918 101.197 429.918 102.068V104.057C429.918 105.223 430.122 106.216 430.531 107.034C430.948 107.852 431.527 108.477 432.27 108.909C433.012 109.333 433.88 109.545 434.872 109.545C435.516 109.545 436.103 109.455 436.634 109.273C437.164 109.083 437.622 108.803 438.009 108.432C438.395 108.061 438.69 107.602 438.895 107.057L442.111 107.636C441.853 108.583 441.391 109.413 440.724 110.125C440.065 110.83 439.236 111.379 438.236 111.773C437.243 112.159 436.111 112.352 434.838 112.352ZM450.381 88.7273L450.085 105.307H446.938L446.642 88.7273H450.381ZM448.517 112.216C447.888 112.216 447.35 111.996 446.903 111.557C446.456 111.11 446.237 110.572 446.244 109.943C446.237 109.322 446.456 108.792 446.903 108.352C447.35 107.905 447.888 107.682 448.517 107.682C449.131 107.682 449.661 107.905 450.108 108.352C450.555 108.792 450.782 109.322 450.79 109.943C450.782 110.36 450.672 110.742 450.46 111.091C450.256 111.432 449.983 111.705 449.642 111.909C449.301 112.114 448.926 112.216 448.517 112.216Z" fill="#F9C40B"/>
<path d="M201.438 173H203.375V183.594C203.375 184.687 203.117 185.664 202.602 186.523C202.091 187.378 201.37 188.052 200.438 188.547C199.505 189.036 198.411 189.281 197.156 189.281C195.901 189.281 194.807 189.036 193.875 188.547C192.943 188.052 192.219 187.378 191.703 186.523C191.193 185.664 190.938 184.687 190.938 183.594V173H192.875V183.438C192.875 184.219 193.047 184.914 193.391 185.523C193.734 186.128 194.224 186.604 194.859 186.953C195.5 187.297 196.266 187.469 197.156 187.469C198.047 187.469 198.813 187.297 199.453 186.953C200.094 186.604 200.583 186.128 200.922 185.523C201.266 184.914 201.438 184.219 201.438 183.438V173ZM215.494 179.687L213.838 180.156C213.734 179.88 213.58 179.612 213.377 179.352C213.179 179.086 212.908 178.867 212.564 178.695C212.221 178.523 211.781 178.437 211.244 178.437C210.51 178.437 209.898 178.607 209.408 178.945C208.924 179.279 208.682 179.703 208.682 180.219C208.682 180.677 208.848 181.039 209.182 181.305C209.515 181.57 210.036 181.792 210.744 181.969L212.525 182.406C213.598 182.667 214.398 183.065 214.924 183.602C215.45 184.133 215.713 184.818 215.713 185.656C215.713 186.344 215.515 186.958 215.119 187.5C214.729 188.042 214.182 188.469 213.479 188.781C212.775 189.094 211.958 189.25 211.025 189.25C209.801 189.25 208.788 188.984 207.986 188.453C207.184 187.922 206.676 187.146 206.463 186.125L208.213 185.687C208.38 186.333 208.695 186.818 209.158 187.141C209.627 187.464 210.239 187.625 210.994 187.625C211.854 187.625 212.536 187.443 213.041 187.078C213.551 186.708 213.807 186.266 213.807 185.75C213.807 185.333 213.661 184.984 213.369 184.703C213.077 184.417 212.63 184.203 212.025 184.062L210.025 183.594C208.926 183.333 208.119 182.93 207.604 182.383C207.093 181.831 206.838 181.141 206.838 180.312C206.838 179.635 207.028 179.036 207.408 178.516C207.794 177.995 208.317 177.586 208.979 177.289C209.645 176.992 210.4 176.844 211.244 176.844C212.432 176.844 213.364 177.104 214.041 177.625C214.723 178.146 215.208 178.833 215.494 179.687ZM223.52 189.25C222.363 189.25 221.366 188.995 220.527 188.484C219.694 187.969 219.051 187.25 218.598 186.328C218.15 185.401 217.926 184.323 217.926 183.094C217.926 181.865 218.15 180.781 218.598 179.844C219.051 178.901 219.681 178.167 220.488 177.641C221.301 177.109 222.249 176.844 223.332 176.844C223.957 176.844 224.574 176.948 225.184 177.156C225.793 177.365 226.348 177.703 226.848 178.172C227.348 178.635 227.746 179.25 228.043 180.016C228.34 180.781 228.488 181.724 228.488 182.844V183.625H219.238V182.031H226.613C226.613 181.354 226.478 180.75 226.207 180.219C225.941 179.687 225.561 179.268 225.066 178.961C224.577 178.654 223.999 178.5 223.332 178.5C222.598 178.5 221.962 178.682 221.426 179.047C220.895 179.406 220.486 179.875 220.199 180.453C219.913 181.031 219.77 181.651 219.77 182.312V183.375C219.77 184.281 219.926 185.049 220.238 185.68C220.556 186.305 220.996 186.781 221.559 187.109C222.121 187.432 222.775 187.594 223.52 187.594C224.004 187.594 224.441 187.526 224.832 187.391C225.228 187.25 225.569 187.042 225.855 186.766C226.142 186.484 226.363 186.135 226.52 185.719L228.301 186.219C228.113 186.823 227.798 187.354 227.355 187.812C226.913 188.266 226.366 188.62 225.715 188.875C225.064 189.125 224.332 189.25 223.52 189.25ZM242.699 177V178.562H236.48V177H242.699ZM238.293 174.125H240.137V185.562C240.137 186.083 240.212 186.474 240.363 186.734C240.52 186.99 240.717 187.161 240.957 187.25C241.202 187.333 241.46 187.375 241.73 187.375C241.934 187.375 242.1 187.365 242.23 187.344C242.361 187.318 242.465 187.297 242.543 187.281L242.918 188.937C242.793 188.984 242.618 189.031 242.395 189.078C242.171 189.13 241.887 189.156 241.543 189.156C241.022 189.156 240.512 189.044 240.012 188.82C239.517 188.596 239.105 188.255 238.777 187.797C238.454 187.339 238.293 186.76 238.293 186.062V174.125ZM247.574 181.781V189H245.73V173H247.574V178.875H247.73C248.012 178.255 248.434 177.763 248.996 177.398C249.564 177.029 250.319 176.844 251.262 176.844C252.079 176.844 252.796 177.008 253.41 177.336C254.025 177.659 254.501 178.156 254.84 178.828C255.184 179.495 255.355 180.344 255.355 181.375V189H253.512V181.5C253.512 180.547 253.264 179.81 252.77 179.289C252.28 178.763 251.6 178.5 250.73 178.5C250.126 178.5 249.585 178.628 249.105 178.883C248.632 179.138 248.257 179.51 247.98 180C247.71 180.49 247.574 181.083 247.574 181.781ZM263.76 189.25C262.604 189.25 261.606 188.995 260.768 188.484C259.934 187.969 259.291 187.25 258.838 186.328C258.39 185.401 258.166 184.323 258.166 183.094C258.166 181.865 258.39 180.781 258.838 179.844C259.291 178.901 259.921 178.167 260.729 177.641C261.541 177.109 262.489 176.844 263.572 176.844C264.197 176.844 264.814 176.948 265.424 177.156C266.033 177.365 266.588 177.703 267.088 178.172C267.588 178.635 267.986 179.25 268.283 180.016C268.58 180.781 268.729 181.724 268.729 182.844V183.625H259.479V182.031H266.854C266.854 181.354 266.718 180.75 266.447 180.219C266.182 179.687 265.801 179.268 265.307 178.961C264.817 178.654 264.239 178.5 263.572 178.5C262.838 178.5 262.202 178.682 261.666 179.047C261.135 179.406 260.726 179.875 260.439 180.453C260.153 181.031 260.01 181.651 260.01 182.312V183.375C260.01 184.281 260.166 185.049 260.479 185.68C260.796 186.305 261.236 186.781 261.799 187.109C262.361 187.432 263.015 187.594 263.76 187.594C264.244 187.594 264.682 187.526 265.072 187.391C265.468 187.25 265.809 187.042 266.096 186.766C266.382 186.484 266.604 186.135 266.76 185.719L268.541 186.219C268.354 186.823 268.038 187.354 267.596 187.812C267.153 188.266 266.606 188.62 265.955 188.875C265.304 189.125 264.572 189.25 263.76 189.25ZM286.221 179.687L284.564 180.156C284.46 179.88 284.307 179.612 284.104 179.352C283.906 179.086 283.635 178.867 283.291 178.695C282.947 178.523 282.507 178.437 281.971 178.437C281.236 178.437 280.624 178.607 280.135 178.945C279.65 179.279 279.408 179.703 279.408 180.219C279.408 180.677 279.575 181.039 279.908 181.305C280.242 181.57 280.762 181.792 281.471 181.969L283.252 182.406C284.325 182.667 285.124 183.065 285.65 183.602C286.176 184.133 286.439 184.818 286.439 185.656C286.439 186.344 286.242 186.958 285.846 187.5C285.455 188.042 284.908 188.469 284.205 188.781C283.502 189.094 282.684 189.25 281.752 189.25C280.528 189.25 279.515 188.984 278.713 188.453C277.911 187.922 277.403 187.146 277.189 186.125L278.939 185.687C279.106 186.333 279.421 186.818 279.885 187.141C280.354 187.464 280.965 187.625 281.721 187.625C282.58 187.625 283.262 187.443 283.768 187.078C284.278 186.708 284.533 186.266 284.533 185.75C284.533 185.333 284.387 184.984 284.096 184.703C283.804 184.417 283.356 184.203 282.752 184.062L280.752 183.594C279.653 183.333 278.846 182.93 278.33 182.383C277.82 181.831 277.564 181.141 277.564 180.312C277.564 179.635 277.755 179.036 278.135 178.516C278.52 177.995 279.044 177.586 279.705 177.289C280.372 176.992 281.127 176.844 281.971 176.844C283.158 176.844 284.09 177.104 284.768 177.625C285.45 178.146 285.934 178.833 286.221 179.687ZM294.246 189.25C293.09 189.25 292.092 188.995 291.254 188.484C290.421 187.969 289.777 187.25 289.324 186.328C288.876 185.401 288.652 184.323 288.652 183.094C288.652 181.865 288.876 180.781 289.324 179.844C289.777 178.901 290.408 178.167 291.215 177.641C292.027 177.109 292.975 176.844 294.059 176.844C294.684 176.844 295.301 176.948 295.91 177.156C296.52 177.365 297.074 177.703 297.574 178.172C298.074 178.635 298.473 179.25 298.77 180.016C299.066 180.781 299.215 181.724 299.215 182.844V183.625H289.965V182.031H297.34C297.34 181.354 297.204 180.75 296.934 180.219C296.668 179.687 296.288 179.268 295.793 178.961C295.303 178.654 294.725 178.5 294.059 178.5C293.324 178.5 292.689 178.682 292.152 179.047C291.621 179.406 291.212 179.875 290.926 180.453C290.639 181.031 290.496 181.651 290.496 182.312V183.375C290.496 184.281 290.652 185.049 290.965 185.68C291.283 186.305 291.723 186.781 292.285 187.109C292.848 187.432 293.501 187.594 294.246 187.594C294.73 187.594 295.168 187.526 295.559 187.391C295.954 187.25 296.296 187.042 296.582 186.766C296.868 186.484 297.09 186.135 297.246 185.719L299.027 186.219C298.84 186.823 298.525 187.354 298.082 187.812C297.639 188.266 297.092 188.62 296.441 188.875C295.79 189.125 295.059 189.25 294.246 189.25ZM305.551 189.281C304.79 189.281 304.1 189.138 303.48 188.852C302.861 188.56 302.368 188.141 302.004 187.594C301.639 187.042 301.457 186.375 301.457 185.594C301.457 184.906 301.592 184.349 301.863 183.922C302.134 183.49 302.496 183.151 302.949 182.906C303.402 182.661 303.902 182.479 304.449 182.359C305.001 182.234 305.556 182.135 306.113 182.063C306.842 181.969 307.434 181.898 307.887 181.852C308.345 181.799 308.678 181.714 308.887 181.594C309.1 181.474 309.207 181.266 309.207 180.969V180.906C309.207 180.135 308.996 179.536 308.574 179.109C308.158 178.682 307.525 178.469 306.676 178.469C305.796 178.469 305.105 178.661 304.605 179.047C304.105 179.432 303.754 179.844 303.551 180.281L301.801 179.656C302.113 178.927 302.53 178.359 303.051 177.953C303.577 177.542 304.15 177.255 304.77 177.094C305.395 176.927 306.009 176.844 306.613 176.844C306.999 176.844 307.441 176.891 307.941 176.984C308.447 177.073 308.934 177.258 309.402 177.539C309.876 177.82 310.27 178.245 310.582 178.812C310.895 179.38 311.051 180.141 311.051 181.094V189H309.207V187.375H309.113C308.988 187.635 308.78 187.914 308.488 188.211C308.197 188.508 307.809 188.76 307.324 188.969C306.84 189.177 306.249 189.281 305.551 189.281ZM305.832 187.625C306.561 187.625 307.176 187.482 307.676 187.195C308.181 186.909 308.561 186.539 308.816 186.086C309.077 185.633 309.207 185.156 309.207 184.656V182.969C309.129 183.062 308.957 183.148 308.691 183.227C308.431 183.299 308.129 183.365 307.785 183.422C307.447 183.474 307.116 183.521 306.793 183.562C306.475 183.599 306.217 183.63 306.02 183.656C305.54 183.719 305.092 183.82 304.676 183.961C304.264 184.096 303.931 184.302 303.676 184.578C303.426 184.849 303.301 185.219 303.301 185.687C303.301 186.328 303.538 186.812 304.012 187.141C304.491 187.464 305.098 187.625 305.832 187.625ZM314.416 189V177H316.197V178.812H316.322C316.541 178.219 316.937 177.737 317.51 177.367C318.083 176.997 318.729 176.812 319.447 176.812C319.583 176.812 319.752 176.815 319.955 176.82C320.158 176.826 320.312 176.833 320.416 176.844V178.719C320.354 178.703 320.21 178.68 319.986 178.648C319.768 178.612 319.536 178.594 319.291 178.594C318.708 178.594 318.187 178.716 317.729 178.961C317.275 179.201 316.916 179.534 316.65 179.961C316.39 180.383 316.26 180.865 316.26 181.406V189H314.416ZM327.111 189.25C325.986 189.25 325.018 188.984 324.205 188.453C323.393 187.922 322.768 187.19 322.33 186.258C321.893 185.326 321.674 184.26 321.674 183.062C321.674 181.844 321.898 180.768 322.346 179.836C322.799 178.898 323.429 178.167 324.236 177.641C325.049 177.109 325.997 176.844 327.08 176.844C327.924 176.844 328.684 177 329.361 177.312C330.038 177.625 330.593 178.062 331.025 178.625C331.458 179.187 331.726 179.844 331.83 180.594H329.986C329.846 180.047 329.533 179.562 329.049 179.141C328.57 178.714 327.924 178.5 327.111 178.5C326.393 178.5 325.762 178.687 325.221 179.062C324.684 179.432 324.265 179.956 323.963 180.633C323.666 181.305 323.518 182.094 323.518 183C323.518 183.927 323.663 184.734 323.955 185.422C324.252 186.109 324.669 186.643 325.205 187.023C325.747 187.404 326.382 187.594 327.111 187.594C327.59 187.594 328.025 187.51 328.416 187.344C328.807 187.177 329.137 186.938 329.408 186.625C329.679 186.312 329.872 185.937 329.986 185.5H331.83C331.726 186.208 331.468 186.846 331.057 187.414C330.65 187.977 330.111 188.424 329.439 188.758C328.773 189.086 327.997 189.25 327.111 189.25ZM336.369 181.781V189H334.525V173H336.369V178.875H336.525C336.807 178.255 337.229 177.763 337.791 177.398C338.359 177.029 339.114 176.844 340.057 176.844C340.874 176.844 341.59 177.008 342.205 177.336C342.82 177.659 343.296 178.156 343.635 178.828C343.979 179.495 344.15 180.344 344.15 181.375V189H342.307V181.5C342.307 180.547 342.059 179.81 341.564 179.289C341.075 178.763 340.395 178.5 339.525 178.5C338.921 178.5 338.38 178.628 337.9 178.883C337.426 179.138 337.051 179.51 336.775 180C336.505 180.49 336.369 181.083 336.369 181.781ZM361.273 184.094V177H363.117V189H361.273V186.969H361.148C360.867 187.578 360.43 188.096 359.836 188.523C359.242 188.945 358.492 189.156 357.586 189.156C356.836 189.156 356.169 188.992 355.586 188.664C355.003 188.331 354.544 187.831 354.211 187.164C353.878 186.492 353.711 185.646 353.711 184.625V177H355.555V184.5C355.555 185.375 355.799 186.073 356.289 186.594C356.784 187.115 357.414 187.375 358.18 187.375C358.638 187.375 359.104 187.258 359.578 187.023C360.057 186.789 360.458 186.43 360.781 185.945C361.109 185.461 361.273 184.844 361.273 184.094ZM366.494 193.5V177H368.275V178.906H368.494C368.63 178.698 368.817 178.432 369.057 178.109C369.301 177.781 369.65 177.49 370.104 177.234C370.562 176.974 371.182 176.844 371.963 176.844C372.973 176.844 373.864 177.096 374.635 177.602C375.406 178.107 376.007 178.823 376.439 179.75C376.872 180.677 377.088 181.771 377.088 183.031C377.088 184.302 376.872 185.404 376.439 186.336C376.007 187.263 375.408 187.982 374.643 188.492C373.877 188.997 372.994 189.25 371.994 189.25C371.223 189.25 370.606 189.122 370.143 188.867C369.679 188.607 369.322 188.312 369.072 187.984C368.822 187.651 368.63 187.375 368.494 187.156H368.338V193.5H366.494ZM368.307 183C368.307 183.906 368.439 184.706 368.705 185.398C368.971 186.086 369.359 186.625 369.869 187.016C370.38 187.401 371.005 187.594 371.744 187.594C372.515 187.594 373.158 187.391 373.674 186.984C374.195 186.573 374.585 186.021 374.846 185.328C375.111 184.63 375.244 183.854 375.244 183C375.244 182.156 375.114 181.396 374.854 180.719C374.598 180.036 374.21 179.497 373.689 179.102C373.174 178.701 372.525 178.5 371.744 178.5C370.994 178.5 370.364 178.69 369.854 179.07C369.343 179.445 368.958 179.971 368.697 180.648C368.437 181.32 368.307 182.104 368.307 183ZM379.9 193.5V177H381.682V178.906H381.9C382.036 178.698 382.223 178.432 382.463 178.109C382.708 177.781 383.057 177.49 383.51 177.234C383.968 176.974 384.588 176.844 385.369 176.844C386.38 176.844 387.27 177.096 388.041 177.602C388.812 178.107 389.413 178.823 389.846 179.75C390.278 180.677 390.494 181.771 390.494 183.031C390.494 184.302 390.278 185.404 389.846 186.336C389.413 187.263 388.814 187.982 388.049 188.492C387.283 188.997 386.4 189.25 385.4 189.25C384.63 189.25 384.012 189.122 383.549 188.867C383.085 188.607 382.729 188.312 382.479 187.984C382.229 187.651 382.036 187.375 381.9 187.156H381.744V193.5H379.9ZM381.713 183C381.713 183.906 381.846 184.706 382.111 185.398C382.377 186.086 382.765 186.625 383.275 187.016C383.786 187.401 384.411 187.594 385.15 187.594C385.921 187.594 386.564 187.391 387.08 186.984C387.601 186.573 387.992 186.021 388.252 185.328C388.518 184.63 388.65 183.854 388.65 183C388.65 182.156 388.52 181.396 388.26 180.719C388.005 180.036 387.617 179.497 387.096 179.102C386.58 178.701 385.932 178.5 385.15 178.5C384.4 178.5 383.77 178.69 383.26 179.07C382.749 179.445 382.364 179.971 382.104 180.648C381.843 181.32 381.713 182.104 381.713 183ZM398.338 189.25C397.182 189.25 396.184 188.995 395.346 188.484C394.512 187.969 393.869 187.25 393.416 186.328C392.968 185.401 392.744 184.323 392.744 183.094C392.744 181.865 392.968 180.781 393.416 179.844C393.869 178.901 394.499 178.167 395.307 177.641C396.119 177.109 397.067 176.844 398.15 176.844C398.775 176.844 399.393 176.948 400.002 177.156C400.611 177.365 401.166 177.703 401.666 178.172C402.166 178.635 402.564 179.25 402.861 180.016C403.158 180.781 403.307 181.724 403.307 182.844V183.625H394.057V182.031H401.432C401.432 181.354 401.296 180.75 401.025 180.219C400.76 179.687 400.38 179.268 399.885 178.961C399.395 178.654 398.817 178.5 398.15 178.5C397.416 178.5 396.781 178.682 396.244 179.047C395.713 179.406 395.304 179.875 395.018 180.453C394.731 181.031 394.588 181.651 394.588 182.312V183.375C394.588 184.281 394.744 185.049 395.057 185.68C395.374 186.305 395.814 186.781 396.377 187.109C396.939 187.432 397.593 187.594 398.338 187.594C398.822 187.594 399.26 187.526 399.65 187.391C400.046 187.25 400.387 187.042 400.674 186.766C400.96 186.484 401.182 186.135 401.338 185.719L403.119 186.219C402.932 186.823 402.617 187.354 402.174 187.812C401.731 188.266 401.184 188.62 400.533 188.875C399.882 189.125 399.15 189.25 398.338 189.25ZM406.111 189V177H407.893V178.812H408.018C408.236 178.219 408.632 177.737 409.205 177.367C409.778 176.997 410.424 176.812 411.143 176.812C411.278 176.812 411.447 176.815 411.65 176.82C411.854 176.826 412.007 176.833 412.111 176.844V178.719C412.049 178.703 411.906 178.68 411.682 178.648C411.463 178.612 411.231 178.594 410.986 178.594C410.403 178.594 409.882 178.716 409.424 178.961C408.971 179.201 408.611 179.534 408.346 179.961C408.085 180.383 407.955 180.865 407.955 181.406V189H406.111Z" fill="#F9C40B"/>
<path d="M565.694 103.503C566.549 99.4251 567.238 95.2697 568.385 91.2304C568.655 90.2826 568.947 87.7084 570.255 87.1711C571.911 86.4911 573.684 88.0025 574.576 88.8241C577.241 91.281 579.173 94.5076 581.161 97.2966C581.559 97.8555 583.199 99.5414 582.98 100.226M570.252 87.1711C572.566 94.5804 572.263 102.62 572.141 110.185C571.895 125.54 576.896 164.038 559.497 175.35C549.135 182.089 531.199 181.579 518.408 182.398C488.583 184.308 457.932 188.942 428 189" stroke="#F9C40B" stroke-width="2" stroke-miterlimit="1.5" stroke-linecap="round" stroke-linejoin="round"/>
<path fill-rule="evenodd" clip-rule="evenodd" d="M35.6875 111C42.7909 111 48.9809 114.911 52.2215 120.697C54.3776 119.844 56.7277 119.375 59.1873 119.375C68.3527 119.375 75.9973 125.886 77.748 134.535C80.7558 137.454 82.6248 141.54 82.6248 146.062C82.6248 154.933 75.4333 162.125 66.5623 162.125C63.7008 162.125 61.0141 161.377 58.6872 160.065C55.3222 163.131 50.8481 165 45.9375 165C39.891 165 34.5064 162.166 31.0392 157.754C27.7577 160.484 23.5393 162.125 18.9375 162.125C8.47861 162.125 0 153.646 0 143.187C0 133.177 7.76762 124.98 17.6046 124.296C20.0054 116.592 27.1934 111 35.6875 111Z" fill="#DDB116"/>
<path fill-rule="evenodd" clip-rule="evenodd" d="M535.688 0C542.791 0 548.981 3.91099 552.222 9.69712C554.378 8.84381 556.728 8.3749 559.187 8.3749C568.353 8.3749 575.997 14.8859 577.748 23.5349C580.756 26.454 582.625 30.5399 582.625 35.0624C582.625 43.9335 575.433 51.1249 566.562 51.1249C563.701 51.1249 561.014 50.3766 558.687 49.0652C555.322 52.1308 550.848 53.9999 545.937 53.9999C539.891 53.9999 534.506 51.1662 531.039 46.7543C527.758 49.4835 523.539 51.1249 518.937 51.1249C508.479 51.1249 500 42.6463 500 32.1874C500 22.1766 507.768 13.98 517.605 13.2961C520.005 5.59236 527.193 0 535.688 0Z" fill="#DDB116"/>
</svg>
