<svg width="28" height="28" viewBox="0 0 28 28" fill="none" xmlns="http://www.w3.org/2000/svg">
<path fill-rule="evenodd" clip-rule="evenodd" d="M21.8333 11.9167C21.8333 17.3935 17.3935 21.8333 11.9167 21.8333C6.43984 21.8333 2 17.3935 2 11.9167C2 6.43984 6.43984 2 11.9167 2C17.3935 2 21.8333 6.43984 21.8333 11.9167ZM20.3333 11.9167C20.3333 16.5651 16.5651 20.3333 11.9167 20.3333C7.26827 20.3333 3.5 16.5651 3.5 11.9167C3.5 7.26827 7.26827 3.5 11.9167 3.5C16.5651 3.5 20.3333 7.26827 20.3333 11.9167Z" fill="#091223"/>
<path d="M19.4295 18.6044L18.1921 19.8418L24.2103 25.8601C24.552 26.2018 25.1061 26.2018 25.4478 25.8601C25.7895 25.5184 25.7895 24.9643 25.4478 24.6226L19.4295 18.6044Z" fill="#091223"/>
</svg>
